<svg width="800" height="610" viewBox="0 0 800 610" fill="none" xmlns="http://www.w3.org/2000/svg">
<path d="M757.981 -1.53041e-05H40.924C18.3227 -1.53041e-05 0 18.3213 0 40.9213V564.596C0 587.196 18.3227 605.517 40.924 605.517H399.455H757.981C780.584 605.517 798.905 587.196 798.905 564.596V40.9213C798.905 18.3213 780.584 -1.53041e-05 757.981 -1.53041e-05Z" fill="#F0EDE2"/>
<path d="M729.045 581.323C749.753 581.323 766.541 564.537 766.541 543.828V64.0214C766.541 43.3161 749.753 26.5294 729.045 26.5294H400.549V581.323H729.045Z" fill="#DDDBD0"/>
<path d="M384.368 458.006L302.569 361.167C292.004 348.659 265.595 348.659 255.031 361.167L12.7919 554.847C2.22926 567.352 15.4346 582.987 36.5626 582.987H278.799H380.111H401.605V478.414L384.368 458.006Z" fill="#6DA1A1"/>
<path d="M789.38 543.865L640.587 274.614C625.901 257.227 589.188 257.227 574.5 274.614L460.783 409.239L401.98 478.855L401.936 478.806L401.605 478.414V582.987H401.936H442.399H607.547H760.696C790.07 582.987 804.068 561.251 789.38 543.865Z" fill="#588281"/>
<path d="M157.9 229.508C157.9 260.834 183.296 286.229 214.621 286.229V172.784C183.296 172.784 157.9 198.18 157.9 229.508Z" fill="#E6BA59"/>
<path d="M214.621 172.784V286.229C245.947 286.229 271.34 260.834 271.34 229.508C271.34 198.18 245.947 172.784 214.621 172.784Z" fill="#C7A24F"/>
<path d="M72.0547 581.323C51.3441 581.323 34.5587 564.537 34.5587 543.828V64.0214C34.5587 43.3161 51.3441 26.5294 72.0547 26.5294H400.549V4.38142H42.0174C19.4174 4.38142 1.09473 22.7014 1.09473 45.3028V568.977C1.09473 591.577 19.4174 609.901 42.0174 609.901H400.549V581.323H72.0547Z" fill="#4E4F51"/>
<path d="M759.079 4.38142H400.549V26.5294H729.045C749.753 26.5294 766.541 43.3161 766.541 64.0214V543.828C766.541 564.537 749.753 581.323 729.045 581.323H400.549V609.901H759.079C781.679 609.901 800 591.577 800 568.977V45.3028C800 22.7014 781.679 4.38142 759.079 4.38142Z" fill="#404042"/>
</svg>
