<svg width="138" height="132" viewBox="0 0 138 132" fill="none" xmlns="http://www.w3.org/2000/svg">
<path d="M132.063 37.9844C132.835 82.361 76.9469 120.306 68.9999 125.473C61.0528 120.309 5.16358 82.3778 5.93765 37.9844C6.211 22.3369 15.3765 10.1311 29.2882 6.88753C31.4651 6.38077 33.7187 6.12407 35.984 6.12407C47.8636 6.12407 59.6634 13.1834 66.7815 24.5486C67.2447 25.2869 68.0736 25.7266 68.9999 25.7266C69.9261 25.7266 70.7551 25.2869 71.2182 24.5486C79.8465 10.7704 94.9084 3.67414 108.712 6.88753C122.624 10.1311 131.789 22.3369 132.063 37.9844ZM109.898 1.78804C95.0963 -1.65859 79.1367 4.90914 68.9999 18.5262C58.8663 4.91753 42.9004 -1.64685 28.1018 1.78804C11.7739 5.59544 1.01906 19.7679 0.703765 37.8921C-0.186421 88.9909 67.5584 130.867 68.2464 131.074C68.4914 131.148 68.7448 131.186 68.9999 131.186C69.2549 131.186 69.5066 131.149 69.755 131.074C70.4429 130.867 138.186 88.9355 137.297 37.8921C136.981 19.7679 126.227 5.59544 109.898 1.78804Z" fill="white"/>
</svg>
