<svg width="87" height="132" viewBox="0 0 87 132" fill="none" xmlns="http://www.w3.org/2000/svg">
<path d="M41.3465 5.42658C28.6798 6.07058 17.5865 12.7612 10.8798 23.7852C3.99979 35.1092 3.15981 49.0319 8.63981 61.0266L42.4265 126.404C42.7199 126.951 43.2798 127.015 43.5065 127.015C43.7198 127.015 44.2798 126.951 44.5998 126.364L78.4131 60.9079C83.8398 49.0252 82.9999 35.1106 76.1199 23.7852C69.4266 12.7612 58.3199 6.06925 45.6532 5.42658C44.2399 5.35725 42.7731 5.35725 41.3465 5.42658ZM43.5065 131.525C41.3865 131.525 39.4531 130.372 38.4398 128.515L4.58656 62.9986C-1.56011 49.5453 -0.626804 34.0453 7.02653 21.4426C14.5199 9.11993 26.9466 1.63988 41.1199 0.919877C42.6932 0.842543 44.3065 0.842543 45.8798 0.919877C60.0665 1.63988 72.4931 9.11993 79.9731 21.4426C87.6398 34.0479 88.5731 49.5386 82.4798 62.8799L48.5866 128.473C47.5599 130.371 45.6131 131.525 43.5065 131.525Z" fill="#45515C"/>
<path d="M43.5065 23.7412C54.6932 23.7412 63.7999 32.8453 63.7999 44.0373C63.7999 55.2266 54.6932 64.3306 43.5065 64.3306C32.3065 64.3306 23.1999 55.2266 23.1999 44.0373C23.1999 32.8453 32.3065 23.7412 43.5065 23.7412ZM43.5065 69.2146C57.3865 69.2146 68.6798 57.9199 68.6798 44.0373C68.6798 30.1519 57.3865 18.8572 43.5065 18.8572C29.6132 18.8572 18.3199 30.1519 18.3199 44.0373C18.3199 57.9199 29.6132 69.2146 43.5065 69.2146Z" fill="#45515C"/>
</svg>
