<svg width="199" height="199" viewBox="0 0 199 199" fill="none" xmlns="http://www.w3.org/2000/svg">
<path d="M198.64 99.3241C198.64 154.18 154.173 198.648 99.3199 198.648C44.4666 198.648 0 154.18 0 99.3241C0 44.4694 44.4666 3.62544e-05 99.3199 3.62544e-05C154.173 3.62544e-05 198.64 44.4694 198.64 99.3241Z" fill="#45515C"/>
<path d="M136.84 49.2107V146.685L101.84 111.687C101.453 111.308 100.96 111.117 100.453 111.117C99.9999 111.117 99.5333 111.277 99.1733 111.601C99.0933 111.667 88.7866 120.755 78.6799 129.889C70.0533 137.687 64.9066 142.441 61.9066 145.412V49.2107H136.84ZM138.773 45.3174H59.9733C58.8933 45.3174 58.0265 46.1907 58.0265 47.264V150.039C57.8132 150.62 57.96 150.999 58.0666 151.309C58.36 152.061 59.1466 152.607 59.9733 152.607C60.88 152.607 61.68 151.956 61.8666 151.069C64.72 147.568 86.24 128.211 100.373 115.731L137.4 152.76C137.773 153.133 138.267 153.331 138.773 153.331C139.027 153.331 139.28 153.283 139.52 153.181C140.253 152.879 140.72 152.173 140.72 151.384V47.264C140.72 46.1907 139.853 45.3174 138.773 45.3174Z" fill="white"/>
</svg>
